<svg width="920" height="220" viewBox="0 0 920 220" fill="none" xmlns="http://www.w3.org/2000/svg" role="img" aria-label="云想衣裳 YunXiangYiShang logo">
  <defs>
    <linearGradient id="bg" x1="0" y1="0" x2="920" y2="220" gradientUnits="userSpaceOnUse">
      <stop offset="0" stop-color="#3b1f1a"/>
      <stop offset="0.45" stop-color="#8b4513"/>
      <stop offset="1" stop-color="#b94047"/>
    </linearGradient>
    <linearGradient id="gold" x1="80" y1="42" x2="166" y2="176" gradientUnits="userSpaceOnUse">
      <stop offset="0" stop-color="#fff3c4"/>
      <stop offset="1" stop-color="#d9b57a"/>
    </linearGradient>
    <filter id="shadow" x="-20%" y="-20%" width="140%" height="140%">
      <feDropShadow dx="0" dy="16" stdDeviation="18" flood-color="#1f1110" flood-opacity="0.35"/>
    </filter>
  </defs>
  <rect width="920" height="220" rx="34" fill="url(#bg)"/>
  <path opacity="0.18" d="M740 18C822 42 882 108 904 187" stroke="#f7dca8" stroke-width="2" stroke-dasharray="10 14"/>
  <path opacity="0.16" d="M52 187C151 134 204 72 244 20" stroke="#fff1c6" stroke-width="2" stroke-dasharray="8 12"/>

  <g filter="url(#shadow)">
    <circle cx="128" cy="110" r="72" fill="rgba(255,255,255,0.12)" stroke="#f2dcb5" stroke-width="2"/>
    <path d="M128 48C116 78 83 96 67 114C88 110 105 114 117 128C111 145 100 158 88 170C112 165 126 152 134 135C153 137 168 148 184 166C179 136 163 118 143 109C147 88 148 67 128 48Z" fill="url(#gold)"/>
    <path d="M105 119C124 113 141 99 152 78" stroke="#7d3a18" stroke-width="5" stroke-linecap="round" opacity="0.65"/>
    <circle cx="154" cy="80" r="7" fill="#b94047"/>
  </g>

  <text x="232" y="94" fill="#fff7e7" font-size="46" font-family="Noto Serif SC, Microsoft YaHei, serif" font-weight="800" letter-spacing="8">云想衣裳</text>
  <text x="235" y="140" fill="#f5dca9" font-size="22" font-family="Inter, Microsoft YaHei, sans-serif" letter-spacing="2">AI Fashion Wardrobe & Recommendation Platform</text>
  <text x="235" y="174" fill="#fff1d0" opacity="0.86" font-size="16" font-family="Inter, Microsoft YaHei, sans-serif">智能衣柜 · 风格画像 · 图像搜索 · 天气穿搭 · 本地大模型顾问</text>
</svg>
